{"title":"Karagul.E12.DVBT.x264-FBRD [Greek Subs emb]","uid":11442776,"size":356952978,"categoryP":"video","categoryS":"tv_shows","magnet":"?xt=urn:btih:26aa3ecdabbec183f2702ac741173b9ecedf42e0&amp;dn=Karagul.E12.DVBT.x264-FBRD+%5BGreek+Subs+emb%5D&amp;tr=udp%3A%2F%2Ftracker.openbittorrent.com%3A80&amp;tr=udp%3A%2F%2Fopen.demonii.com%3A1337&amp;tr=udp%3A%2F%2Ftracker.coppersurfer.tk%3A6969&amp;tr=udp%3A%2F%2Fexodus.desync.com%3A6969","seeders":6,"leechers":1,"uploader":"Kama_","files":1,"time":1415826931,"description":"General\nFormat                           : MPEG-4\nFormat profile                   : Base Media\nCodec ID                         : isom\nFile size                        : 340 MiB\nDuration                         : 42mn 35s\nOverall bit rate                 : 1 117 Kbps\nWriting application              : Lavf54.63.104\n\nVideo\nFormat                           : AVC\nFormat/Info                      : Advanced Video Codec\nFormat profile                   : &lt;a class=&quot;__cf_email__&quot; href=&quot;/cdn-cgi/l/email-protection&quot; data-cfemail=&quot;81c9e8e6e9c1cdb2afb0&quot;&gt;[email&amp;#160;protected]&lt;/a&gt;&lt;script cf-hash='f9e31' type=&quot;text/javascript&quot;&gt;\n/* &lt;![CDATA[ */!function(){try{var t=&quot;currentScript&quot;in document?document.currentScript:function(){for(var t=document.getElementsByTagName(&quot;script&quot;),e=t.length;e--;)if(t[e].getAttribute(&quot;cf-hash&quot;))return t[e]}();if(t&amp;&amp;t.previousSibling){var e,r,n,i,c=t.previousSibling,a=c.getAttribute(&quot;data-cfemail&quot;);if(a){for(e=&quot;&quot;,r=parseInt(a.substr(0,2),16),n=2;a.length-n;n+=2)i=parseInt(a.substr(n,2),16)^r,e+=String.fromCharCode(i);e=document.createTextNode(e),c.parentNode.replaceChild(e,c)}}}catch(u){}}();/* ]]&gt; */&lt;/script&gt;\nFormat settings, CABAC           : Yes\nFormat settings, ReFrames        : 5 frames\nCodec ID                         : avc1\nCodec ID/Info                    : Advanced Video Coding\nDuration                         : 42mn 35s\nBit rate mode                    : Variable\nBit rate                         : 987 Kbps\nWidth                            : 720 pixels\nHeight                           : 404 pixels\nDisplay aspect ratio             : 16:9\nFrame rate mode                  : Variable\nFrame rate                       : 25.000 fps\nMinimum frame rate               : 12.500 fps\nMaximum frame rate               : 25.000 fps\nColor space                      : YUV\nChroma subsampling               : 4:2:0\nBit depth                        : 8 bits\nScan type                        : Progressive\nBits/(Pixel*Frame)               : 0.136\nStream size                      : 301 MiB (88%)\nWriting library                  : x264 core 123 r2189 35cf912\n\nAudio\nID                               : 2\nFormat                           : AAC\nFormat/Info                      : Advanced Audio Codec\nFormat version                   : Version 4\nFormat profile                   : LC\nFormat settings, SBR             : No\nCodec ID                         : 40\nDuration                         : 42mn 35s\nBit rate mode                    : Variable\nBit rate                         : 122 Kbps\nMaximum bit rate                 : 128 Kbps\nChannel(s)                       : 2 channels\nChannel positions                : Front: L R\nSampling rate                    : 48.0 KHz\nStream size                      : 37.0 MiB (11%)\n\n...special thanks to Ripper/Encoder ~panfhon~","torrent":{"xt":"urn:btih:26aa3ecdabbec183f2702ac741173b9ecedf42e0","amp;dn":"Karagul.E12.DVBT.x264-FBRD+%5BGreek+Subs+emb%5D","amp;tr":["udp%3A%2F%2Ftracker.openbittorrent.com%3A80","udp%3A%2F%2Fopen.demonii.com%3A1337","udp%3A%2F%2Ftracker.coppersurfer.tk%3A6969","udp%3A%2F%2Fexodus.desync.com%3A6969"],"infoHash":"26aa3ecdabbec183f2702ac741173b9ecedf42e0","infoHashBuffer":{"type":"Buffer","data":[38,170,62,205,171,190,193,131,242,112,42,199,65,23,59,158,206,223,66,224]},"announce":[],"urlList":[]}}